<?xml version="1.0" encoding="UTF-8"?>
<svg xmlns="http://www.w3.org/2000/svg" viewBox="0 0 512 512">
  <rect width="100%" height="100%" fill="#2f7f6f"/>
  <g fill="none" stroke="#fff" stroke-width="6" stroke-linecap="round" stroke-linejoin="round">
    <path d="M256 120c-20 0-36 16-36 36v24c0 20 16 36 36 36s36-16 36-36v-24c0-20-16-36-36-36z"/>
    <path d="M180 220c24-8 40-28 76-28s52 20 76 28c18 6 28 18 28 34 0 44-12 78-24 102-12 24-36 46-80 46s-68-22-80-46c-12-24-24-58-24-102 0-16 10-28 28-34z"/>
  </g>
  <text x="50%" y="92%" font-family="Helvetica, Arial, sans-serif" font-size="40" fill="#fff" text-anchor="middle">Advaitha Yogam</text>
</svg>
